:SAMPLES-PER-SECOND 30
:FULLY-SPECIFIED
:DEGREES
444
root  -17.1412 37.457 5.0994 82.9915 -68.2017 -104.792
RightUpLeg  -45.7347 -64.3735 -5.75817
RightLeg  102.98 4.01849 -13.6989
RightFoot  26.0383 -7.50369 22.5227
RightToes  6.35927e-011 1.30204e-014 -6.03759e-014
Spine  21.8783 2.49855 -20.1368
Spine1  12.7426 -7.44545 20.0371
HEad  -17.1054 27.4745 13.3883
LeftShoulder1  0.871724 -1.08098 -11.8466
LeftArm  -11.5596 3.4938 -64.1932
LeftForeArm  161.922 -77.529 -135.438
LeftHand  -0.899646 18.7871 -6.6325
RightShoulder  1.15518 0.872346 20.0759
RightArm  6.04077 -51.4662 45.5177
RightForeArm  49.6396 48.3096 8.97851
RightHand  -1.07482 -14.3866 12.1343
LeftUpLeg  5.35511 10.124 43.2141
LeftLeg  44.7616 9.57752 10.4576
LeftFoot  -12.8215 -0.236892 -23.9937
LeftToes  7.40077e-010 7.2695e-011 -6.03601e-011
445
root  -17.2715 37.3365 4.7961 85.3683 -66.1387 -108.004
RightUpLeg  -50.2985 -63.398 -5.26905
RightLeg  109.817 5.76449 -13.34
RightFoot  30.1262 -7.61394 20.5062
RightToes  6.35927e-011 1.30204e-014 -6.03759e-014
Spine  21.574 2.07601 -18.4588
Spine1  13.2945 -6.96311 18.0842
HEad  -15.9547 28.5846 15.1643
LeftShoulder1  0.545753 0.132338 -8.78747
LeftArm  -12.419 -3.45678 -64.9019
LeftForeArm  173.55 -75.1514 -144.605
LeftHand  -0.665427 18.8792 -4.6062
RightShoulder  1.0787 0.688289 19.3677
RightArm  9.19047 -56.1902 43.9031
RightForeArm  48.2805 50.0661 9.74765
RightHand  -0.622142 -12.4162 8.86359
LeftUpLeg  6.00828 6.08627 43.6631
LeftLeg  46.0009 13.508 14.9233
LeftFoot  -12.1124 -0.101224 -25.1485
LeftToes  7.40077e-010 7.2695e-011 -6.03601e-011
446
root  -17.3412 37.1958 4.54924 90.0104 -65 -113.173
RightUpLeg  -52.7145 -60.8581 -5.25645
RightLeg  113.61 5.37876 -10.24
RightFoot  33.051 -8.15437 20.4026
RightToes  6.35927e-011 1.30204e-014 -6.03759e-014
Spine  21.4195 1.95386 -18.0684
Spine1  13.2829 -6.64595 16.9747
HEad  -14.9202 30.4996 15.587
LeftShoulder1  0.409109 0.738063 -7.19273
LeftArm  -14.1735 -6.80806 -63.2739
LeftForeArm  179.985 -72.6428 -150.693
LeftHand  -0.420663 18.9201 -2.6152
RightShoulder  1.06566 0.698803 18.9598
RightArm  14.253 -57.8127 39.9602
RightForeArm  45.5098 51.9232 10.7309
RightHand  -0.626015 -12.4025 8.80142
LeftUpLeg  8.38516 2.14208 42.7061
LeftLeg  45.6196 16.4934 17.6586
LeftFoot  -13.0771 -0.331528 -26.5052
LeftToes  7.40077e-010 7.2695e-011 -6.03601e-011
447
root  -17.3311 37.0595 4.36778 94.0107 -64.3801 -116.467
RightUpLeg  -54.3903 -59.2044 -4.26712
RightLeg  113.251 5.0388 -9.77353
RightFoot  34.4323 -8.89005 21.4633
RightToes  6.35927e-011 1.30204e-014 -6.03759e-014
Spine  21.496 1.86603 -18.6624
Spine1  12.0062 -6.77755 17.5873
HEad  -14.666 32.187 15.0342
LeftShoulder1  0.344431 1.12151 -6.79111
LeftArm  -15.8783 -6.98881 -61.5415
LeftForeArm  -176.179 -70.3927 -154.64
LeftHand  -0.599464 20.5063 -3.53584
RightShoulder  1.10012 0.832397 18.9699
RightArm  17.4955 -57.6062 35.8369
RightForeArm  47.2764 54.1362 11.6334
RightHand  -0.997395 -13.7844 12.1623
LeftUpLeg  9.49675 -0.344515 41.4515
LeftLeg  44.9686 18.2065 18.8734
LeftFoot  -14.5439 -0.697599 -27.5522
LeftToes  7.40077e-010 7.2695e-011 -6.03601e-011
448
root  -17.2356 36.9945 4.28008 97.3114 -64.1716 -117.861
RightUpLeg  -54.6644 -58.3848 -2.65252
RightLeg  108.703 4.80571 -11.5983
RightFoot  35.6212 -9.44077 22.124
RightToes  6.35927e-011 1.30204e-014 -6.03759e-014
Spine  21.2025 1.682 -18.8914
Spine1  10.7212 -6.888 18.289
HEad  -15.8975 32.8623 14.057
LeftShoulder1  0.313161 1.34054 -6.81264
LeftArm  -16.0187 -6.09974 -60.943
LeftForeArm  -173.915 -69.1539 -156.463
LeftHand  -0.913601 21.654 -5.43921
RightShoulder  1.10142 0.825977 19.0437
RightArm  16.5721 -56.8382 34.8085
RightForeArm  52.4814 56.3818 12.3828
RightHand  -1.43112 -14.8687 15.8025
LeftUpLeg  8.3251 -0.605732 40.7425
LeftLeg  45.0295 18.7395 19.3899
LeftFoot  -15.1962 -0.886018 -28.475
LeftToes  7.40077e-010 7.2695e-011 -6.03601e-011
449
root  -17.0769 37.0201 4.25535 101.714 -64.6039 -120.048
RightUpLeg  -52.5322 -56.9024 -1.57441
RightLeg  101.576 3.4648 -12.7095
RightFoot  33.953 -9.6944 23.5998
RightToes  6.35927e-011 1.30204e-014 -6.03759e-014
Spine  20.2857 1.62884 -18.5983
Spine1  10.4924 -6.56351 17.8101
HEad  -17.9565 32.8195 12.9375
LeftShoulder1  0.377738 0.990846 -7.39547
LeftArm  -14.8359 -4.72689 -60.4722
LeftForeArm  -172.919 -68.7754 -157.016
LeftHand  -0.74995 20.7543 -4.54478
RightShoulder  1.04764 0.627369 18.9633
RightArm  12.4689 -55.612 37.4204
RightForeArm  56.0597 58.5739 13.3559
RightHand  -1.745 -15.9931 17.3359
LeftUpLeg  6.49661 0.361956 39.473
LeftLeg  45.5131 19.377 20.271
LeftFoot  -14.7155 -0.79336 -29.3147
LeftToes  7.40077e-010 7.2695e-011 -6.03601e-011
450
root  -16.8808 37.0626 4.18326 108.5 -65.3071 -125.028
RightUpLeg  -48.127 -52.8101 -1.0361
RightLeg  92.6268 1.35331 -13.1667
RightFoot  30.5586 -9.82684 25.8726
RightToes  6.35927e-011 1.30204e-014 -6.03759e-014
Spine  19.4722 1.97687 -18.1838
Spine1  10.3912 -5.61977 16.3723
HEad  -19.5796 32.6604 11.6818
LeftShoulder1  0.523988 0.288958 -8.84273
LeftArm  -13.0085 -1.93824 -59.5458
LeftForeArm  -172.749 -69.4397 -156.247
LeftHand  -0.184822 18.3354 -0.64943
RightShoulder  0.985428 0.416138 18.731
RightArm  7.63921 -53.7652 41.6485
RightForeArm  56.0865 61.4935 15.3392
RightHand  -1.84278 -17.6026 15.862
LeftUpLeg  5.47219 0.34794 36.5484
LeftLeg  46.3469 21.7462 22.9522
LeftFoot  -13.2889 -0.432661 -29.3573
LeftToes  7.40077e-010 7.2695e-011 -6.03601e-011
451
root  -16.661 37.0843 4.02814 117.515 -64.7624 -132.276
RightUpLeg  -42.4215 -43.729 0.672213
RightLeg  80.9378 -1.43108 -13.5276
RightFoot  32.7077 -10.5384 26.291
RightToes  6.35927e-011 1.30204e-014 -6.03759e-014
Spine  19.0341 2.71545 -17.2268
Spine1  9.25468 -4.05907 14.9531
HEad  -20.3343 32.5699 10.1406
LeftShoulder1  0.631539 -0.0273505 -10.6414
LeftArm  -10.0513 2.60793 -58.8285
LeftForeArm  -173.017 -71.8166 -152.916
LeftHand  0.140415 14.9602 2.50541
RightShoulder  0.944964 0.308131 18.3555
RightArm  3.92287 -51.3652 45.3355
RightForeArm  56.3011 65.5818 18.916
RightHand  -1.33854 -17.1128 11.6742
LeftUpLeg  5.00377 -2.2129 32.6856
LeftLeg  48.1609 25.8741 27.9288
LeftFoot  -11.0358 0.142469 -28.6237
LeftToes  7.40077e-010 7.2695e-011 -6.03601e-011
452
root  -16.5032 37.0435 3.77558 126.853 -62.7449 -138.852
RightUpLeg  -36.4561 -28.7998 3.93455
RightLeg  67.3717 -3.78748 -10.9361
RightFoot  38.3362 -11.5789 25.3577
RightToes  6.35927e-011 1.30204e-014 -6.03759e-014
Spine  17.9479 3.4679 -15.9965
Spine1  7.55511 -2.49742 14.7453
HEad  -20.4667 32.5632 8.30734
LeftShoulder1  0.686724 -0.0515256 -12.195
LeftArm  -5.91167 8.25059 -58.0434
LeftForeArm  -177.113 -75.2541 -145.842
LeftHand  0.0133419 11.5654 1.18774
RightShoulder  0.919989 0.268497 17.9191
RightArm  1.89449 -48.3463 47.5134
RightForeArm  61.7189 70.022 23.8878
RightHand  -0.521767 -12.8257 6.65284
LeftUpLeg  4.01558 -7.35819 28.9491
LeftLeg  51.1749 29.6398 33.7354
LeftFoot  -8.70675 0.736547 -29.0506
LeftToes  7.40077e-010 7.2695e-011 -6.03601e-011
453
root  -16.4864 36.8487 3.39632 134.09 -62.3378 -142.423
RightUpLeg  -31.298 -12.559 6.38542
RightLeg  56.3671 -4.23801 -7.08842
RightFoot  33.4106 -10.0461 24.5904
RightToes  6.35927e-011 1.30204e-014 -6.03759e-014
Spine  16.396 3.42996 -16.1179
Spine1  5.96426 -2.25552 16.1324
HEad  -20.1602 32.6478 6.60945
LeftShoulder1  0.823374 -0.505148 -13.5311
LeftArm  -2.30991 14.3553 -55.683
LeftForeArm  171.149 -77.7044 -136.665
LeftHand  -0.305767 10.4375 -4.88198
RightShoulder  0.890431 0.191156 17.6061
RightArm  0.675626 -45.1395 48.4476
RightForeArm  72.7144 74.1286 30.5708
RightHand  -0.0808757 -8.01049 1.58723
LeftUpLeg  1.47768 -13.6652 25.5641
LeftLeg  54.198 30.7316 37.6084
LeftFoot  -7.52434 1.12154 -31.5921
LeftToes  7.40077e-010 7.2695e-011 -6.03601e-011
454
root  -16.4623 36.5973 2.97142 136.426 -66.4813 -141.877
RightUpLeg  -26.9626 -3.7008 6.65634
RightLeg  50.7406 -7.79131 -10.3637
RightFoot  15.8654 -5.0307 20.7254
RightToes  6.35927e-011 1.30204e-014 -6.03759e-014
Spine  17.2828 1.86625 -17.2003
Spine1  3.83993 -4.0539 17.6429
HEad  -20.0166 32.3538 5.38647
LeftShoulder1  0.999589 -1.1439 -14.6348
LeftArm  -1.54 20.173 -51.36
LeftForeArm  157.923 -78.2972 -131.259
LeftHand  -0.738295 13.1279 -9.78505
RightShoulder  0.815337 -0.0882364 17.3663
RightArm  -1.60201 -43.084 49.0267
RightForeArm  88.3543 78.2859 44.097
RightHand  0.0123347 -6.6053 -3.11955
LeftUpLeg  -3.34265 -18.3848 23.424
LeftLeg  55.5003 28.8141 37.3605
LeftFoot  -6.84645 1.39222 -33.5265
LeftToes  7.40077e-010 7.2695e-011 -6.03601e-011
455
root  -16.3003 36.2643 2.47497 132.776 -73.5278 -137.126
RightUpLeg  -23.8283 -5.43849 5.26121
RightLeg  48.8546 -13.4885 -16.3623
RightFoot  -1.67955 -1.25143 15.0767
RightToes  6.35927e-011 1.30204e-014 -6.03759e-014
Spine  21.0802 -0.451861 -16.965
Spine1  1.17401 -6.38827 16.7875
HEad  -21.4814 30.7062 4.07422
LeftShoulder1  0.977217 -0.976471 -14.9429
LeftArm  -5.05165 23.9998 -47.0534
LeftForeArm  151.948 -78.2938 -129.739
LeftHand  -0.855543 15.9474 -8.06088
RightShoulder  0.663374 -0.678099 16.9588
RightArm  -5.78539 -42.7566 48.9489
RightForeArm  116.94 81.4052 77.0749
RightHand  0.097724 -8.35191 -5.3532
LeftUpLeg  -10.442 -16.3752 23.6597
LeftLeg  56.0198 23.5876 32.9095
LeftFoot  -5.36886 1.80843 -33.1944
LeftToes  7.40077e-010 7.2695e-011 -6.03601e-011
